# xmcd
#
# Track frame offsets:
#	150
#	15157
#	24857
#	37645
#	49397
#	60995
#	74230
#	87372
#	96622
#	106017
#
# Disc length: 1552 seconds
#
# Revision: 1
# Processed by: cddbd v1.5.1PL2 Copyright (c) Steve Scherf et al.
# Submitted via: audiograbber 1.83.01
#
DISCID=74060e0a
DTITLE=Various Artist - All American Country [CD1]
DYEAR=2006
DGENRE=Country
TTITLE0=Jimmie Rodgers - In The Jailhouse Now
TTITLE1=The Monroe Brothers - Darling Corey
TTITLE2=Bob Willis and His Texas Playboys - Texarkana Baby
TTITLE3=Gene Autry - Back In The Saddle Again
TTITLE4=Eddy Arnold - Bouquet Of Roses
TTITLE5=Lefty Frizzeli - If You've Got The Money I've Got The Time
TTITLE6=Hank Snow And His Rainbow Ranch Boys - I'm Movin' On
TTITLE7=Chet Atkins - Yakety Axe
TTITLE8=Lester Flatt and Earl Scruggs With The Froggy Mountain Boys - The Ballad 
TTITLE8=Of Jed Clampett
TTITLE9=Jim Reeves - He'll Have To Go
EXTD=Compilation
EXTT0=
EXTT1=
EXTT2=
EXTT3=
EXTT4=
EXTT5=
EXTT6=
EXTT7=
EXTT8=
EXTT9=
PLAYORDER=
